<svg xmlns="http://www.w3.org/2000/svg" width="200" height="200"><path d="M99.85 50L52.8 66.557l7.434 61.642L99.898 150l39.87-22.095 7.433-61.64L99.85 50z" fill="#b2b2b2"/><path d="M142.51 69.827L99.74 55.242v89.551l35.844-19.836 6.925-55.13z" fill="#b52e31"/><path d="M58.08 70.09l6.372 55.131 35.289 19.57v-89.55L58.08 70.09z" fill="#e23237"/><path d="M109.655 99.784l-9.836-20.54-8.659 20.54h18.495zm3.75 8.636H87.334l-5.833 14.59-10.849.2 29.09-64.716 30.104 64.715H119.79l-6.385-14.79z" fill="#f2f2f2"/><path d="M99.74 58.495l.079 20.75 9.825 20.555h-9.88l-.023 8.607 13.663.013 6.386 14.791 10.382.193-30.431-64.91z" fill="#b2b2b2"/></svg>