<svg xmlns="http://www.w3.org/2000/svg" width="200" height="200"><path d="M146.91 107.233c-4.545.026-8.481 1.117-11.782 2.743-1.219-2.413-2.438-4.52-2.64-6.095-.23-1.828-.509-2.945-.23-5.13.28-2.183 1.55-5.28 1.55-5.535-.026-.228-.28-1.346-2.895-1.37-2.616-.026-4.876.507-5.13 1.193-.254.685-.761 2.26-1.092 3.885-.457 2.387-5.23 10.842-7.947 15.286-.89-1.727-1.651-3.25-1.803-4.469-.229-1.828-.508-2.946-.229-5.13.28-2.183 1.55-5.281 1.55-5.535-.026-.229-.28-1.346-2.896-1.371-2.615-.026-4.875.508-5.13 1.193-.253.686-.532 2.311-1.091 3.885-.533 1.575-6.881 15.693-8.532 19.375a78.604 78.604 0 0 1-2.108 4.393c-.533 1.016-.025.076-.076.178-.457.863-.71 1.346-.71 1.346v.025c-.356.635-.737 1.244-.915 1.244-.127 0-.38-1.701.05-4.037.94-4.901 3.226-12.544 3.2-12.824 0-.127.432-1.472-1.472-2.158-1.854-.686-2.514.457-2.667.457-.152 0-.279.406-.279.406s2.057-8.608-3.936-8.608c-3.758 0-8.938 4.088-11.503 7.821-1.625.889-5.078 2.768-8.735 4.774-1.397.762-2.844 1.574-4.215 2.31l-.28-.304c-7.262-7.745-20.695-13.23-20.136-23.64.203-3.784 1.524-13.764 25.8-25.85 19.882-9.904 35.803-7.187 38.57-1.143 3.937 8.633-8.506 24.682-29.176 26.992-7.871.89-12.01-2.158-13.051-3.3-1.092-1.194-1.245-1.245-1.651-1.016-.66.355-.254 1.422 0 2.056.61 1.6 3.149 4.444 7.466 5.866 3.783 1.244 13.026 1.93 24.199-2.387 12.519-4.85 22.295-18.308 19.425-29.557-2.92-11.452-21.914-15.21-39.866-8.837-10.69 3.81-22.27 9.751-30.599 17.547-9.903 9.243-11.477 17.318-10.817 20.67 2.31 11.96 18.79 19.755 25.393 25.52-.33.177-.635.355-.914.507-3.301 1.625-15.87 8.202-19.02 15.16-3.555 7.871.559 13.534 3.301 14.296 8.482 2.361 17.166-1.88 21.864-8.862 4.672-6.983 4.113-16.049 1.955-20.188l-.076-.152 2.59-1.524c1.676-.99 3.326-1.904 4.774-2.691-.813 2.209-1.397 4.824-1.702 8.633-.355 4.47 1.473 10.26 3.885 12.544 1.067.99 2.337 1.016 3.124 1.016 2.793 0 4.063-2.31 5.46-5.078 1.726-3.378 3.25-7.288 3.25-7.288s-1.905 10.589 3.3 10.589c1.905 0 3.81-2.463 4.673-3.733v.025s.05-.076.152-.254c.203-.304.305-.482.305-.482v-.05c.762-1.321 2.463-4.343 5.002-9.345 3.276-6.45 6.425-14.525 6.425-14.525s.304 1.98 1.244 5.23c.559 1.93 1.778 4.038 2.717 6.095a97.58 97.58 0 0 1-1.219 1.676l.026.025a72.361 72.361 0 0 1-2.006 2.54c-2.59 3.098-5.688 6.627-6.095 7.643-.482 1.193-.38 2.082.559 2.793.686.508 1.904.61 3.2.508 2.336-.152 3.96-.736 4.773-1.092a16.533 16.533 0 0 0 4.114-2.158c2.54-1.88 4.088-4.546 3.936-8.1-.076-1.956-.711-3.886-1.498-5.714.228-.33.457-.66.685-1.016 4.012-5.865 7.11-12.315 7.11-12.315s.305 1.98 1.244 5.23c.483 1.651 1.448 3.454 2.311 5.232-3.758 3.072-6.12 6.627-6.932 8.963-1.498 4.317-.33 6.272 1.879 6.73.99.203 2.412-.255 3.479-.712a15.752 15.752 0 0 0 4.393-2.26c2.54-1.879 4.977-4.494 4.85-8.024-.076-1.625-.508-3.225-1.092-4.748 3.2-1.32 7.338-2.082 12.595-1.448 11.3 1.32 13.534 8.38 13.103 11.326-.432 2.945-2.794 4.57-3.58 5.078-.788.483-1.042.66-.966 1.016.102.533.457.508 1.143.406.94-.152 5.942-2.412 6.145-7.846.305-6.983-6.323-14.601-18.08-14.525zm-87.148 29.38c-3.733 4.088-8.99 5.637-11.224 4.316-2.412-1.396-1.472-7.414 3.124-11.756 2.793-2.641 6.424-5.079 8.811-6.577.533-.33 1.346-.813 2.31-1.397.153-.101.255-.152.255-.152.177-.102.38-.229.584-.356 1.701 6.196.076 11.63-3.86 15.922zm27.297-18.563c-1.295 3.175-4.037 11.326-5.688 10.869-1.422-.381-2.285-6.552-.279-12.646 1.016-3.073 3.174-6.73 4.444-8.151 2.057-2.285 4.291-3.047 4.85-2.108.66 1.22-2.514 10.056-3.327 12.036zm22.524 10.767c-.559.28-1.067.483-1.295.33-.178-.101.228-.482.228-.482s2.819-3.022 3.936-4.419c.635-.812 1.397-1.752 2.21-2.818v.304c0 3.657-3.505 6.095-5.08 7.085zm17.368-3.961c-.406-.305-.355-1.244 1.016-4.19.533-1.168 1.752-3.123 3.86-4.977.254.762.406 1.498.38 2.184-.025 4.57-3.275 6.272-5.256 6.983z" fill="#cf649a"/></svg>